<svg xmlns="http://www.w3.org/2000/svg" width="1440" height="1000" viewBox="0 0 1440 1000" role="img" aria-labelledby="title desc"><title id="title">News und Videos Seite</title><desc id="desc">Content-Queue mit Suche, Statusfilter und Trefferliste.</desc><rect width="1440" height="1000" fill="#09090b"/><rect y="0" width="1440" height="72" fill="#111827"/><g font-family="Inter,Arial,sans-serif"><text x="28" y="45" fill="#fafafa" font-size="20" font-weight="700">YouTube News Studio</text><text x="535" y="45" fill="#93c5fd" font-size="18">News &amp; Videos</text><text x="120" y="135" fill="#fca5a5" font-size="16" font-weight="800" letter-spacing="2">CONTENT-QUEUE</text><text x="120" y="190" fill="#fafafa" font-size="48" font-weight="800">News &amp; Videos</text><rect x="1190" y="145" width="105" height="34" rx="17" fill="#2563eb"/><text x="1213" y="168" fill="#fff" font-size="16">0 Treffer</text><rect x="120" y="230" width="1200" height="92" rx="18" fill="#18181b" stroke="#27272a"/><rect x="145" y="254" width="520" height="44" rx="12" fill="#0f172a" stroke="#3f3f46"/><text x="165" y="282" fill="#a1a1aa" font-size="16">Titel oder Text suchen</text><rect x="685" y="254" width="250" height="44" rx="12" fill="#0f172a" stroke="#3f3f46"/><text x="705" y="282" fill="#fafafa" font-size="16">Alle</text><rect x="955" y="254" width="160" height="44" rx="12" fill="#dc2626"/><text x="1008" y="282" fill="#fff" font-size="16" font-weight="800">Filtern</text><rect x="1135" y="254" width="160" height="44" rx="12" fill="#1f2937" stroke="#374151"/><text x="1165" y="282" fill="#fff" font-size="16" font-weight="800">Zurücksetzen</text><rect x="120" y="365" width="1200" height="190" rx="18" fill="#18181b" stroke="#27272a" opacity=".75"/><text x="160" y="430" fill="#fafafa" font-size="30" font-weight="700">Artikel erscheinen nach dem Crawl in dieser Liste</text><text x="160" y="480" fill="#a1a1aa" font-size="20">Status-Badges, Quelllinks, Video ansehen, Upload vorbereiten und Neu verarbeiten sind hier gebündelt.</text><rect x="160" y="510" width="150" height="34" rx="17" fill="#0369a1"/><text x="187" y="532" fill="#fff" font-size="16">Neu</text></g></svg>
